<?xml version="1.0" encoding="UTF-8" standalone="no"?>
<!DOCTYPE svg PUBLIC "-//W3C//DTD SVG 1.1//EN" "http://www.w3.org/Graphics/SVG/1.1/DTD/svg11.dtd">
<svg width="100%" height="100%" viewBox="0 0 29 27" version="1.1" xmlns="http://www.w3.org/2000/svg" xmlns:xlink="http://www.w3.org/1999/xlink" xml:space="preserve" xmlns:serif="http://www.serif.com/" style="fill-rule:evenodd;clip-rule:evenodd;stroke-linejoin:round;stroke-miterlimit:2;">
    <g transform="matrix(1,0,0,1,-1607,-1415)">
        <g transform="matrix(0.892417,0,0,1,641.448,438.406)">
            <g transform="matrix(1.58101,0,0,1.41092,1107.8,991.634)">
                <path d="M0,-1.915C-0.198,-1.916 -0.388,-1.841 -0.53,-1.703C-0.673,-1.566 -0.754,-1.377 -0.755,-1.18C-0.749,-0.762 -0.408,-0.426 0.01,-0.425L0.339,-0.425C0.75,-0.425 1.084,-0.759 1.084,-1.17C1.084,-1.581 0.751,-1.915 0.34,-1.915L0,-1.915ZM3.343,0.901L-0.091,0.901C-1.064,0.911 -1.916,0.252 -2.15,-0.692C-2.263,-1.28 -2.104,-1.888 -1.717,-2.344C-1.324,-2.809 -0.749,-3.079 -0.141,-3.084L3.343,-3.084C3.75,-3.089 4.083,-2.764 4.09,-2.357L4.09,0.174C4.078,0.578 3.747,0.899 3.343,0.9L3.343,0.901ZM-11.172,-6.065C-11.585,-6.069 -11.925,-5.742 -11.936,-5.329C-11.93,-4.912 -11.59,-4.576 -11.172,-4.575L-5.527,-4.575C-5.116,-4.575 -4.782,-4.909 -4.782,-5.32C-4.782,-5.731 -5.116,-6.065 -5.527,-6.065L-11.172,-6.065ZM-1.395,8.043L-10.425,8.043C-11.903,8.12 -13.353,7.613 -14.461,6.632C-15.46,5.575 -15.984,4.156 -15.91,2.704L-15.91,-4.618C-15.984,-6.07 -15.46,-7.49 -14.461,-8.546C-13.353,-9.528 -11.903,-10.035 -10.425,-9.957L-1.394,-9.957C0.085,-10.035 1.536,-9.526 2.642,-8.54C3.644,-7.471 4.166,-6.039 4.09,-4.575L-0.141,-4.575L-0.141,-4.541C-1.08,-4.545 -1.982,-4.18 -2.654,-3.524C-3.32,-2.884 -3.697,-1.999 -3.697,-1.075C-3.67,0.863 -2.08,2.414 -0.141,2.392L4.09,2.392L4.09,2.703C4.164,4.155 3.64,5.574 2.641,6.631C1.533,7.613 0.083,8.12 -1.395,8.043" style="fill-rule:nonzero;"/>
            </g>
        </g>
    </g>
</svg>
